<svg width="820" height="128" viewBox="0 0 820 128" fill="none" xmlns="http://www.w3.org/2000/svg">
<g filter="url(#filter0_d_33_7)">
<path d="M65.9043 43.4668L102.262 0.966797H131.729L80.5137 60.6494L131.397 120H102.096L65.9043 77.832L29.8789 120H0.494141L51.2949 60.6494L0.328125 0.966797H29.5469L65.9043 43.4668ZM273.069 120H195.207C193.215 120 191.057 119.779 188.733 119.336C186.464 118.838 184.195 118.091 181.926 117.095C179.712 116.099 177.582 114.826 175.534 113.276C173.487 111.672 171.661 109.762 170.056 107.549C168.506 105.28 167.261 102.679 166.321 99.7461C165.38 96.7578 164.909 93.4098 164.909 89.7021V31.2646C164.909 29.2725 165.131 27.1419 165.573 24.873C166.071 22.5488 166.819 20.2799 167.815 18.0664C168.811 15.7975 170.111 13.6393 171.716 11.5918C173.321 9.54427 175.23 7.74577 177.444 6.19629C179.712 4.59147 182.313 3.31868 185.246 2.37793C188.179 1.43717 191.5 0.966797 195.207 0.966797H273.069V22.5488H195.207C192.385 22.5488 190.227 23.2959 188.733 24.79C187.238 26.2842 186.491 28.4977 186.491 31.4307V89.7021C186.491 92.4691 187.238 94.6273 188.733 96.1768C190.282 97.6709 192.44 98.418 195.207 98.418H273.069V120ZM339.037 120H317.454V0.966797H339.037V120ZM495.649 22.5488H448.086V120H426.504V22.5488H378.857V0.966797H495.649V22.5488ZM633.253 71.3574H565.103V49.6094H633.253V71.3574ZM642.965 120H565.103C562.115 120 558.85 119.474 555.308 118.423C551.767 117.371 548.474 115.656 545.43 113.276C542.442 110.841 539.924 107.715 537.877 103.896C535.885 100.023 534.888 95.2913 534.888 89.7021V11.8408C534.888 10.3467 535.165 8.93555 535.719 7.60742C536.272 6.2793 537.019 5.11719 537.96 4.12109C538.956 3.125 540.118 2.35026 541.446 1.79688C542.774 1.24349 544.213 0.966797 545.763 0.966797H642.965V22.5488H556.471V89.7021C556.471 92.5244 557.218 94.6826 558.712 96.1768C560.206 97.6709 562.392 98.418 565.269 98.418H642.965V120ZM806.633 40.9766C806.633 45.9017 806.024 50.3011 804.807 54.1748C803.589 58.0485 801.929 61.4795 799.826 64.4678C797.779 67.4007 795.399 69.9186 792.688 72.0215C789.976 74.1243 787.126 75.8675 784.138 77.251C781.205 78.5791 778.216 79.5475 775.173 80.1562C772.185 80.765 769.362 81.0693 766.706 81.0693L811.779 120H778.41L733.42 81.0693H717.897V59.4873H766.706C769.418 59.266 771.88 58.7126 774.094 57.8271C776.363 56.8864 778.299 55.6413 779.904 54.0918C781.564 52.5423 782.837 50.6885 783.723 48.5303C784.608 46.3167 785.051 43.7988 785.051 40.9766V27.3633C785.051 26.1458 784.885 25.2327 784.553 24.624C784.276 23.96 783.889 23.4896 783.391 23.2129C782.948 22.8809 782.45 22.6872 781.896 22.6318C781.398 22.5765 780.928 22.5488 780.485 22.5488H709.265V120H687.683V11.8408C687.683 10.3467 687.959 8.93555 688.513 7.60742C689.066 6.2793 689.813 5.11719 690.754 4.12109C691.75 3.125 692.912 2.35026 694.24 1.79688C695.568 1.24349 697.007 0.966797 698.557 0.966797H780.485C785.3 0.966797 789.367 1.85221 792.688 3.62305C796.008 5.33854 798.692 7.52441 800.739 10.1807C802.842 12.7816 804.336 15.6038 805.222 18.6475C806.162 21.6911 806.633 24.541 806.633 27.1973V40.9766Z" fill="white"/>
</g>
<defs>
<filter id="filter0_d_33_7" x="0.328125" y="0.966797" width="819.451" height="127.033" filterUnits="userSpaceOnUse" color-interpolation-filters="sRGB">
<feFlood flood-opacity="0" result="BackgroundImageFix"/>
<feColorMatrix in="SourceAlpha" type="matrix" values="0 0 0 0 0 0 0 0 0 0 0 0 0 0 0 0 0 0 127 0" result="hardAlpha"/>
<feOffset dx="4" dy="4"/>
<feGaussianBlur stdDeviation="2"/>
<feColorMatrix type="matrix" values="0 0 0 0 0 0 0 0 0 0 0 0 0 0 0 0 0 0 0.5 0"/>
<feBlend mode="normal" in2="BackgroundImageFix" result="effect1_dropShadow_33_7"/>
<feBlend mode="normal" in="SourceGraphic" in2="effect1_dropShadow_33_7" result="shape"/>
</filter>
</defs>
</svg>
