<svg width="903" height="216" viewBox="0 0 903 216" fill="none" xmlns="http://www.w3.org/2000/svg">
<g filter="url(#filter0_d_210_5)">
<path d="M66.9043 68.4668L103.262 25.9668H132.729L81.5137 85.6494L132.397 145H103.096L66.9043 102.832L30.8789 145H1.49414L52.2949 85.6494L1.32812 25.9668H30.5469L66.9043 68.4668ZM274.069 145H196.207C194.215 145 192.057 144.779 189.733 144.336C187.464 143.838 185.195 143.091 182.926 142.095C180.712 141.099 178.582 139.826 176.534 138.276C174.487 136.672 172.661 134.762 171.056 132.549C169.506 130.28 168.261 127.679 167.321 124.746C166.38 121.758 165.909 118.41 165.909 114.702V56.2646C165.909 54.2725 166.131 52.1419 166.573 49.873C167.071 47.5488 167.819 45.2799 168.815 43.0664C169.811 40.7975 171.111 38.6393 172.716 36.5918C174.321 34.5443 176.23 32.7458 178.444 31.1963C180.712 29.5915 183.313 28.3187 186.246 27.3779C189.179 26.4372 192.5 25.9668 196.207 25.9668H274.069V47.5488H196.207C193.385 47.5488 191.227 48.2959 189.733 49.79C188.238 51.2842 187.491 53.4977 187.491 56.4307V114.702C187.491 117.469 188.238 119.627 189.733 121.177C191.282 122.671 193.44 123.418 196.207 123.418H274.069V145ZM340.037 145H318.454V25.9668H340.037V145ZM496.649 47.5488H449.086V145H427.504V47.5488H379.857V25.9668H496.649V47.5488ZM634.253 96.3574H566.103V74.6094H634.253V96.3574ZM643.965 145H566.103C563.115 145 559.85 144.474 556.308 143.423C552.767 142.371 549.474 140.656 546.43 138.276C543.442 135.841 540.924 132.715 538.877 128.896C536.885 125.023 535.888 120.291 535.888 114.702V36.8408C535.888 35.3467 536.165 33.9355 536.719 32.6074C537.272 31.2793 538.019 30.1172 538.96 29.1211C539.956 28.125 541.118 27.3503 542.446 26.7969C543.774 26.2435 545.213 25.9668 546.763 25.9668H643.965V47.5488H557.471V114.702C557.471 117.524 558.218 119.683 559.712 121.177C561.206 122.671 563.392 123.418 566.269 123.418H643.965V145ZM807.633 65.9766C807.633 70.9017 807.024 75.3011 805.807 79.1748C804.589 83.0485 802.929 86.4795 800.826 89.4678C798.779 92.4007 796.399 94.9186 793.688 97.0215C790.976 99.1243 788.126 100.868 785.138 102.251C782.205 103.579 779.216 104.548 776.173 105.156C773.185 105.765 770.362 106.069 767.706 106.069L812.779 145H779.41L734.42 106.069H718.897V84.4873H767.706C770.418 84.266 772.88 83.7126 775.094 82.8271C777.363 81.8864 779.299 80.6413 780.904 79.0918C782.564 77.5423 783.837 75.6885 784.723 73.5303C785.608 71.3167 786.051 68.7988 786.051 65.9766V52.3633C786.051 51.1458 785.885 50.2327 785.553 49.624C785.276 48.96 784.889 48.4896 784.391 48.2129C783.948 47.8809 783.45 47.6872 782.896 47.6318C782.398 47.5765 781.928 47.5488 781.485 47.5488H710.265V145H688.683V36.8408C688.683 35.3467 688.959 33.9355 689.513 32.6074C690.066 31.2793 690.813 30.1172 691.754 29.1211C692.75 28.125 693.912 27.3503 695.24 26.7969C696.568 26.2435 698.007 25.9668 699.557 25.9668H781.485C786.3 25.9668 790.367 26.8522 793.688 28.623C797.008 30.3385 799.692 32.5244 801.739 35.1807C803.842 37.7816 805.336 40.6038 806.222 43.6475C807.162 46.6911 807.633 49.541 807.633 52.1973V65.9766Z" fill="white"/>
</g>
<g filter="url(#filter1_d_210_5)">
<path d="M619.808 207L611.36 154.2H619.04L624.32 191.64C624.512 193.048 624.704 194.584 624.896 196.248C625.152 197.848 625.344 199.192 625.472 200.28C625.6 199.192 625.792 197.848 626.048 196.248C626.368 194.584 626.624 193.048 626.816 191.64L632.672 154.2H640.928L646.784 191.64C646.976 193.048 647.2 194.584 647.456 196.248C647.776 197.848 648 199.192 648.128 200.28C648.256 199.192 648.448 197.848 648.704 196.248C649.024 194.584 649.28 193.048 649.472 191.64L654.944 154.2H662.24L653.408 207H643.904L638.24 170.52C637.984 168.728 637.696 166.936 637.376 165.144C637.056 163.352 636.832 161.944 636.704 160.92C636.576 161.944 636.384 163.352 636.128 165.144C635.872 166.936 635.584 168.728 635.264 170.52L629.312 207H619.808ZM695.323 207.96C691.163 207.96 687.515 207.128 684.378 205.464C681.306 203.8 678.907 201.464 677.178 198.456C675.514 195.384 674.682 191.832 674.682 187.8V173.4C674.682 169.304 675.514 165.752 677.178 162.744C678.907 159.736 681.306 157.4 684.378 155.736C687.515 154.072 691.163 153.24 695.323 153.24C699.483 153.24 703.099 154.072 706.171 155.736C709.307 157.4 711.707 159.736 713.371 162.744C715.099 165.752 715.963 169.304 715.963 173.4V182.712H683.13V187.8C683.13 191.96 684.187 195.16 686.299 197.4C688.411 199.576 691.418 200.664 695.323 200.664C698.651 200.664 701.339 200.088 703.386 198.936C705.434 197.72 706.682 195.928 707.13 193.56H715.771C715.194 197.976 713.019 201.496 709.243 204.12C705.531 206.68 700.891 207.96 695.323 207.96ZM707.515 176.952V173.4C707.515 169.24 706.459 166.04 704.347 163.8C702.299 161.56 699.291 160.44 695.323 160.44C691.418 160.44 688.411 161.56 686.299 163.8C684.187 166.04 683.13 169.24 683.13 173.4V176.184H708.187L707.515 176.952ZM756.917 207.96C752.565 207.96 749.077 206.808 746.453 204.504C743.829 202.136 742.517 198.936 742.517 194.904L744.245 196.92H742.517V207H733.877V136.92H742.517V152.28L742.325 164.28H744.245L742.517 166.296C742.517 162.328 743.829 159.16 746.453 156.792C749.141 154.424 752.629 153.24 756.917 153.24C762.229 153.24 766.485 155 769.685 158.52C772.885 162.04 774.485 166.84 774.485 172.92V188.376C774.485 194.392 772.885 199.16 769.685 202.68C766.485 206.2 762.229 207.96 756.917 207.96ZM754.037 200.472C757.685 200.472 760.565 199.384 762.677 197.208C764.789 195.032 765.845 191.896 765.845 187.8V173.4C765.845 169.304 764.789 166.168 762.677 163.992C760.565 161.816 757.685 160.728 754.037 160.728C750.517 160.728 747.701 161.848 745.589 164.088C743.541 166.328 742.517 169.432 742.517 173.4V187.8C742.517 191.768 743.541 194.872 745.589 197.112C747.701 199.352 750.517 200.472 754.037 200.472Z" fill="white"/>
</g>
<defs>
<filter id="filter0_d_210_5" x="1.32812" y="25.9668" width="819.451" height="127.033" filterUnits="userSpaceOnUse" color-interpolation-filters="sRGB">
<feFlood flood-opacity="0" result="BackgroundImageFix"/>
<feColorMatrix in="SourceAlpha" type="matrix" values="0 0 0 0 0 0 0 0 0 0 0 0 0 0 0 0 0 0 127 0" result="hardAlpha"/>
<feOffset dx="4" dy="4"/>
<feGaussianBlur stdDeviation="2"/>
<feColorMatrix type="matrix" values="0 0 0 0 0 0 0 0 0 0 0 0 0 0 0 0 0 0 0.5 0"/>
<feBlend mode="normal" in2="BackgroundImageFix" result="effect1_dropShadow_210_5"/>
<feBlend mode="normal" in="SourceGraphic" in2="effect1_dropShadow_210_5" result="shape"/>
</filter>
<filter id="filter1_d_210_5" x="607.36" y="136.92" width="171.125" height="79.0399" filterUnits="userSpaceOnUse" color-interpolation-filters="sRGB">
<feFlood flood-opacity="0" result="BackgroundImageFix"/>
<feColorMatrix in="SourceAlpha" type="matrix" values="0 0 0 0 0 0 0 0 0 0 0 0 0 0 0 0 0 0 127 0" result="hardAlpha"/>
<feOffset dy="4"/>
<feGaussianBlur stdDeviation="2"/>
<feComposite in2="hardAlpha" operator="out"/>
<feColorMatrix type="matrix" values="0 0 0 0 0 0 0 0 0 0 0 0 0 0 0 0 0 0 0.25 0"/>
<feBlend mode="normal" in2="BackgroundImageFix" result="effect1_dropShadow_210_5"/>
<feBlend mode="normal" in="SourceGraphic" in2="effect1_dropShadow_210_5" result="shape"/>
</filter>
</defs>
</svg>
