<svg width="353" height="59" viewBox="0 0 353 59" fill="none" xmlns="http://www.w3.org/2000/svg">
<g filter="url(#filter0_d_20_17)">
<path d="M28.3359 18.5859L43.7344 0.585938H56.2148L34.5234 25.8633L56.0742 51H43.6641L28.3359 33.1406L13.0781 51H0.632812L22.1484 25.8633L0.5625 0.585938H12.9375L28.3359 18.5859ZM116.076 51H83.0995C82.2558 51 81.3417 50.9062 80.3573 50.7188C79.3964 50.5078 78.4355 50.1914 77.4745 49.7695C76.537 49.3477 75.6347 48.8086 74.7675 48.1523C73.9003 47.4727 73.1269 46.6641 72.4472 45.7266C71.7909 44.7656 71.2636 43.6641 70.8652 42.4219C70.4667 41.1562 70.2675 39.7383 70.2675 38.168V13.418C70.2675 12.5742 70.3613 11.6719 70.5488 10.7109C70.7597 9.72656 71.0761 8.76563 71.498 7.82812C71.9198 6.86719 72.4706 5.95313 73.1503 5.08594C73.83 4.21875 74.6386 3.45703 75.5761 2.80078C76.537 2.12109 77.6386 1.58203 78.8808 1.18359C80.123 0.785156 81.5292 0.585938 83.0995 0.585938H116.076V9.72656H83.0995C81.9042 9.72656 80.9902 10.043 80.3573 10.6758C79.7245 11.3086 79.4081 12.2461 79.4081 13.4883V38.168C79.4081 39.3398 79.7245 40.2539 80.3573 40.9102C81.0136 41.543 81.9277 41.8594 83.0995 41.8594H116.076V51ZM144.015 51H134.875V0.585938H144.015V51ZM210.345 9.72656H190.201V51H181.06V9.72656H160.881V0.585938H210.345V9.72656ZM268.625 30.3984H239.761V21.1875H268.625V30.3984ZM272.738 51H239.761C238.496 51 237.113 50.7773 235.613 50.332C234.113 49.8867 232.718 49.1602 231.429 48.1523C230.164 47.1211 229.097 45.7969 228.23 44.1797C227.386 42.5391 226.965 40.5352 226.965 38.168V5.19141C226.965 4.55859 227.082 3.96094 227.316 3.39844C227.55 2.83594 227.867 2.34375 228.265 1.92188C228.687 1.5 229.179 1.17188 229.742 0.9375C230.304 0.703125 230.914 0.585938 231.57 0.585938H272.738V9.72656H236.105V38.168C236.105 39.3633 236.422 40.2773 237.054 40.9102C237.687 41.543 238.613 41.8594 239.832 41.8594H272.738V51ZM342.056 17.5312C342.056 19.6172 341.798 21.4805 341.283 23.1211C340.767 24.7617 340.064 26.2148 339.173 27.4805C338.306 28.7227 337.298 29.7891 336.15 30.6797C335.002 31.5703 333.795 32.3086 332.529 32.8945C331.287 33.457 330.021 33.8672 328.732 34.125C327.466 34.3828 326.271 34.5117 325.146 34.5117L344.236 51H330.103L311.048 34.5117H304.474V25.3711H325.146C326.295 25.2773 327.337 25.043 328.275 24.668C329.236 24.2695 330.056 23.7422 330.736 23.0859C331.439 22.4297 331.978 21.6445 332.353 20.7305C332.728 19.793 332.916 18.7266 332.916 17.5312V11.7656C332.916 11.25 332.845 10.8633 332.705 10.6055C332.587 10.3242 332.423 10.125 332.212 10.0078C332.025 9.86719 331.814 9.78516 331.58 9.76172C331.369 9.73828 331.17 9.72656 330.982 9.72656H300.818V51H291.677V5.19141C291.677 4.55859 291.795 3.96094 292.029 3.39844C292.263 2.83594 292.58 2.34375 292.978 1.92188C293.4 1.5 293.892 1.17188 294.455 0.9375C295.017 0.703125 295.627 0.585938 296.283 0.585938H330.982C333.021 0.585938 334.744 0.960938 336.15 1.71094C337.556 2.4375 338.693 3.36328 339.56 4.48828C340.451 5.58984 341.084 6.78516 341.459 8.07422C341.857 9.36328 342.056 10.5703 342.056 11.6953V17.5312Z" fill="black"/>
</g>
<defs>
<filter id="filter0_d_20_17" x="0.5625" y="0.585938" width="351.673" height="58.4141" filterUnits="userSpaceOnUse" color-interpolation-filters="sRGB">
<feFlood flood-opacity="0" result="BackgroundImageFix"/>
<feColorMatrix in="SourceAlpha" type="matrix" values="0 0 0 0 0 0 0 0 0 0 0 0 0 0 0 0 0 0 127 0" result="hardAlpha"/>
<feOffset dx="4" dy="4"/>
<feGaussianBlur stdDeviation="2"/>
<feColorMatrix type="matrix" values="0 0 0 0 0 0 0 0 0 0 0 0 0 0 0 0 0 0 0.5 0"/>
<feBlend mode="normal" in2="BackgroundImageFix" result="effect1_dropShadow_20_17"/>
<feBlend mode="normal" in="SourceGraphic" in2="effect1_dropShadow_20_17" result="shape"/>
</filter>
</defs>
</svg>
